<svg width="24" height="24" viewBox="0 0 24 24" fill="none" xmlns="http://www.w3.org/2000/svg">
<path fill-rule="evenodd" clip-rule="evenodd" d="M15.6292 21.6004V14.17H18.1177L18.49 11.2815H15.6292V9.43826C15.6292 8.60199 15.8617 8.03132 17.0607 8.03132H18.5903V5.44786C17.8498 5.36929 17.1056 5.33119 16.3609 5.33372C14.1561 5.33372 12.6468 6.67986 12.6468 9.15239V11.2815H10.1529V14.17H12.6468V21.6004H3.46706C2.87795 21.6004 2.40039 21.1228 2.40039 20.5337V3.46706C2.40039 2.87795 2.87795 2.40039 3.46706 2.40039H20.5337C21.1228 2.40039 21.6004 2.87795 21.6004 3.46706V20.5337C21.6004 21.1228 21.1228 21.6004 20.5337 21.6004H15.6292Z" fill="white"/>
</svg>
