<svg width="24" height="24" viewBox="0 0 24 24" fill="none" xmlns="http://www.w3.org/2000/svg">
<path fill-rule="evenodd" clip-rule="evenodd" d="M21.9909 4.9767C21.9397 5.65414 21.5307 8.02579 21.1217 10.5904L19.8436 18.1886C19.8436 18.1886 19.7413 19.3016 18.8722 19.4951C18.0031 19.6887 16.5716 18.8177 16.3153 18.6241C16.1108 18.479 12.4803 16.3015 11.1511 15.2363C10.7932 14.946 10.3842 14.3653 11.2022 13.6879C13.0427 12.091 15.2417 10.1065 16.571 8.8484C17.1845 8.26773 17.798 6.91284 15.2417 8.55806L8.03242 13.1556C8.03242 13.1556 7.21442 13.6395 5.68066 13.204C4.14691 12.7685 2.3569 12.1878 2.3569 12.1878C2.3569 12.1878 1.1299 11.462 3.22603 10.6878L15.1394 6.04184C16.3153 5.55796 20.3037 4.00951 20.3037 4.00951C20.3037 4.00951 22.1448 3.33148 21.9909 4.9767Z" fill="white"/>
</svg>
