<svg width="24" height="24" viewBox="0 0 24 24" fill="none" xmlns="http://www.w3.org/2000/svg">
<path fill-rule="evenodd" clip-rule="evenodd" d="M22.1491 5.70581C21.3887 6.04216 20.5824 6.26305 19.7567 6.36118C20.627 5.84071 21.2783 5.02158 21.5893 4.05644C20.7726 4.54249 19.8772 4.88312 18.944 5.06738C17.655 3.68824 15.5997 3.34837 13.9354 4.23916C12.271 5.12994 11.4138 7.02865 11.8465 8.86612C8.49698 8.69824 5.37624 7.11614 3.26099 4.5136C2.89076 5.1495 2.69621 5.87237 2.69725 6.60819C2.69725 8.05239 3.4323 9.32827 4.54981 10.0753C3.88848 10.0544 3.2417 9.87585 2.66339 9.55436V9.60615C2.6638 11.5892 4.06129 13.2974 6.00497 13.6907C5.39105 13.8571 4.74732 13.8816 4.12253 13.7625C4.66747 15.4598 6.23151 16.6227 8.0139 16.6558C6.26885 18.0264 4.05056 18.6469 1.84766 18.3809C3.75171 19.6054 5.96821 20.2555 8.23202 20.2534C15.8942 20.2534 20.0844 13.9059 20.0844 8.40099C20.0844 8.22171 20.0794 8.04044 20.0714 7.86315C20.887 7.27368 21.5909 6.54347 22.1501 5.70681L22.1491 5.70581Z" fill="white"/>
</svg>
