<svg width="24" height="24" viewBox="0 0 24 24" fill="none" xmlns="http://www.w3.org/2000/svg">
<path fill-rule="evenodd" clip-rule="evenodd" d="M12.0801 1.87131C6.5951 1.83574 2.07461 6.24473 2.02498 11.6829C2.00764 13.5877 2.53323 15.3704 3.45766 16.8869L2.03215 21.0884C1.87609 21.549 2.31438 21.9901 2.78138 21.8419L7.18468 20.444C8.61079 21.2265 10.2504 21.6735 11.9946 21.6765C17.4772 21.686 22.0001 17.21 22.0001 11.7742C22.0001 6.32713 17.5651 1.90747 12.0801 1.87131ZM17.5842 15.6787C17.3516 16.3249 16.2119 16.948 15.7001 16.9942C15.1882 17.0404 15.1882 17.4098 12.3504 16.3023C9.5131 15.1943 7.72224 12.3095 7.58232 12.1252C7.443 11.9408 6.44263 10.6253 6.44263 9.26349C6.44263 7.90173 7.16375 7.23241 7.41968 6.95555C7.6756 6.67869 7.97756 6.60933 8.16412 6.60933C8.35009 6.60933 8.53605 6.63245 8.69929 6.63245C8.86193 6.63245 9.09453 6.53996 9.32714 7.09427C9.55974 7.64799 10.1176 9.00976 10.1876 9.14789C10.2575 9.28602 10.3036 9.44787 10.2109 9.63224C10.1176 9.81721 10.0716 9.93222 9.93166 10.0935C9.79234 10.2553 9.63867 10.4539 9.5131 10.5784C9.37378 10.716 9.22788 10.866 9.39052 11.1428C9.55316 11.4197 10.1134 12.3255 10.9434 13.0589C12.0095 14.0015 12.9089 14.2938 13.1881 14.4319C13.4673 14.5706 13.63 14.5475 13.7926 14.3626C13.9559 14.1782 14.4904 13.5551 14.6764 13.2782C14.8624 13.0014 15.0483 13.0476 15.3042 13.1401C15.5602 13.232 16.9325 13.9019 17.2117 14.04C17.4903 14.1788 17.6769 14.2475 17.7469 14.3631C17.8168 14.4788 17.8168 15.0325 17.5842 15.6787Z" fill="white"/>
</svg>
